<svg width="588" height="406" viewBox="0 0 588 406" fill="none" xmlns="http://www.w3.org/2000/svg">
<rect x="93" y="397.594" width="16.4354" height="585.372" transform="rotate(-135 93 397.594)" fill="#FFFCF5"/>
<rect x="58" y="-108.401" width="334.003" height="334.003" transform="rotate(-45 58 -108.401)" fill="#3E1FA7"/>
<rect x="95" y="-7.5332" width="16.4354" height="547.814" transform="rotate(-45 95 -7.5332)" fill="#FFFCF5"/>
<rect x="58" y="476.176" width="334.003" height="334.003" transform="rotate(-45 58 476.176)" fill="#3E1FA7"/>
<path d="M134.672 191H128.024L130.856 173.144H144.944C150.192 173.144 152.816 174.944 152.816 178.544C152.816 183.12 149.896 185.408 144.056 185.408H135.56L134.672 191ZM136.256 180.944H143.36C144.208 180.944 144.832 180.776 145.232 180.44C145.632 180.088 145.832 179.624 145.832 179.048C145.832 178.088 145.168 177.608 143.84 177.608H136.784L136.256 180.944ZM155.09 173.144H174.29L173.594 177.512H160.946L160.61 179.744H173.018L172.322 184.088H159.914L159.506 186.536H172.346L171.65 191H152.258L155.09 173.144ZM188.902 183.656L186.814 177.488L183.094 183.656H188.902ZM191.374 191L190.39 188.12H180.43L178.702 191H171.91L183.046 173.144H191.95L198.502 191H191.374ZM205.664 191H199.016L201.848 173.144H208.496L207.392 180.152L216.848 173.144H225.272L213.92 181.52L222.8 191H214.328L206.936 183.008L205.664 191Z" fill="#FFFCF5"/>
<path d="M360.672 191H354.024L356.856 173.144H370.944C376.192 173.144 378.816 174.944 378.816 178.544C378.816 183.12 375.896 185.408 370.056 185.408H361.56L360.672 191ZM362.256 180.944H369.36C370.208 180.944 370.832 180.776 371.232 180.44C371.632 180.088 371.832 179.624 371.832 179.048C371.832 178.088 371.168 177.608 369.84 177.608H362.784L362.256 180.944ZM391.05 191.336C389.658 191.336 388.378 191.24 387.21 191.048C386.058 190.872 385.074 190.64 384.258 190.352C383.458 190.048 382.738 189.68 382.098 189.248C381.474 188.816 380.97 188.368 380.586 187.904C380.202 187.44 379.882 186.936 379.626 186.392C379.386 185.848 379.218 185.336 379.122 184.856C379.042 184.36 379.002 183.856 379.002 183.344C379.002 182.688 379.042 182.032 379.122 181.376C379.202 180.832 379.298 180.328 379.41 179.864C379.538 179.4 379.746 178.872 380.034 178.28C380.322 177.672 380.666 177.128 381.066 176.648C381.482 176.152 382.034 175.656 382.722 175.16C383.41 174.664 384.194 174.256 385.074 173.936C385.954 173.6 387.026 173.328 388.29 173.12C389.57 172.912 390.978 172.808 392.514 172.808H393.594C395.53 172.808 397.234 172.976 398.706 173.312C400.178 173.648 401.346 174.08 402.21 174.608C403.074 175.136 403.77 175.76 404.298 176.48C404.842 177.2 405.202 177.896 405.378 178.568C405.57 179.24 405.666 179.944 405.666 180.68C405.666 181.4 405.626 182.032 405.546 182.576C405.466 183.136 405.362 183.648 405.234 184.112C405.122 184.576 404.922 185.12 404.634 185.744C404.346 186.368 404.002 186.928 403.602 187.424C403.202 187.92 402.658 188.424 401.97 188.936C401.282 189.432 400.498 189.848 399.618 190.184C398.738 190.52 397.658 190.792 396.378 191C395.098 191.224 393.682 191.336 392.13 191.336H391.05ZM398.73 181.304C398.73 180.248 398.274 179.368 397.362 178.664C396.45 177.96 394.914 177.608 392.754 177.608C391.522 177.608 390.458 177.736 389.562 177.992C388.666 178.232 387.978 178.568 387.498 179C387.034 179.432 386.69 179.872 386.466 180.32C386.242 180.752 386.098 181.224 386.034 181.736C386.002 182.024 385.986 182.312 385.986 182.6C385.986 183.096 386.074 183.56 386.25 183.992C386.442 184.408 386.746 184.816 387.162 185.216C387.578 185.616 388.186 185.936 388.986 186.176C389.802 186.4 390.778 186.512 391.914 186.512C395.962 186.512 398.21 185.088 398.658 182.24C398.706 181.92 398.73 181.608 398.73 181.304ZM417.887 191H409.775L405.431 173.144H412.655L415.055 184.904L420.119 173.144H427.559L429.551 184.76L434.999 173.144H441.959L432.791 191H425.063L422.831 179.696L417.887 191ZM442.614 173.144H461.814L461.118 177.512H448.47L448.134 179.744H460.542L459.846 184.088H447.438L447.03 186.536H459.87L459.174 191H439.782L442.614 173.144ZM469.202 180.56H476.906C477.674 180.56 478.234 180.392 478.586 180.056C478.954 179.72 479.138 179.312 479.138 178.832C479.138 177.936 478.53 177.488 477.314 177.488H469.706L469.202 180.56ZM468.53 184.88L467.57 191H460.922L463.754 173.144H479.666C481.906 173.144 483.554 173.52 484.61 174.272C485.682 175.024 486.218 176.072 486.218 177.416C486.218 178.68 485.786 179.696 484.922 180.464C484.074 181.232 483.09 181.744 481.97 182C482.994 182.304 483.786 182.808 484.346 183.512C484.906 184.2 485.098 185.088 484.922 186.176L484.466 188.984C484.338 189.704 484.346 190.336 484.49 190.88L484.466 191H477.674C477.578 190.824 477.57 190.48 477.65 189.968L477.962 188C478.138 186.944 477.986 186.16 477.506 185.648C477.026 185.136 476.138 184.88 474.842 184.88H468.53Z" fill="#FFFCF5"/>
</svg>
