<svg width="1440" height="743" viewBox="0 0 1440 743" fill="none" xmlns="http://www.w3.org/2000/svg">
<g clip-path="url(#clip0_122_1976)">
<rect width="1440" height="744" fill="#FFFCF5"/>
<path d="M1440 0H269L811.825 771.285L1440 772V0Z" fill="#121212"/>
<path d="M0 771.75V-1.4292H266.54L1031.68 771.75H0Z" fill="#020E28"/>
<g opacity="0.4">
<ellipse cx="20.9682" cy="731.019" rx="6.78854" ry="6.43125" fill="#333333"/>
<circle cx="49.1949" cy="731.019" r="6.43125" fill="#333333"/>
<ellipse cx="77.4214" cy="731.733" rx="6.78854" ry="6.43125" fill="#333333"/>
<circle cx="105.648" cy="731.733" r="6.43125" fill="#333333"/>
<circle cx="134.232" cy="731.733" r="6.43125" fill="#333333"/>
</g>
<g opacity="0.4">
<ellipse cx="20.9682" cy="413.744" rx="6.78854" ry="6.43125" fill="#333333"/>
<ellipse cx="20.9682" cy="440.183" rx="6.78854" ry="6.43125" fill="#333333"/>
<ellipse cx="20.9682" cy="466.623" rx="6.78854" ry="6.43125" fill="#333333"/>
<circle cx="49.1949" cy="413.744" r="6.43125" fill="#333333"/>
<circle cx="49.1949" cy="440.183" r="6.43125" fill="#333333"/>
<circle cx="49.1949" cy="466.623" r="6.43125" fill="#333333"/>
<ellipse cx="77.4214" cy="414.458" rx="6.78854" ry="6.43125" fill="#333333"/>
<ellipse cx="77.4214" cy="440.898" rx="6.78854" ry="6.43125" fill="#333333"/>
<ellipse cx="77.4214" cy="467.337" rx="6.78854" ry="6.43125" fill="#333333"/>
<circle cx="105.648" cy="414.458" r="6.43125" fill="#333333"/>
<circle cx="105.648" cy="440.898" r="6.43125" fill="#333333"/>
<circle cx="105.648" cy="467.337" r="6.43125" fill="#333333"/>
<circle cx="134.232" cy="414.458" r="6.43125" fill="#333333"/>
<circle cx="134.232" cy="440.898" r="6.43125" fill="#333333"/>
<circle cx="134.232" cy="467.337" r="6.43125" fill="#333333"/>
</g>
<g opacity="0.4">
<ellipse cx="20.9682" cy="572.381" rx="6.78854" ry="6.43125" fill="#333333"/>
<ellipse cx="20.9682" cy="598.821" rx="6.78854" ry="6.43125" fill="#333333"/>
<ellipse cx="20.9682" cy="625.26" rx="6.78854" ry="6.43125" fill="#333333"/>
<circle cx="49.1949" cy="572.381" r="6.43125" fill="#333333"/>
<circle cx="49.1949" cy="598.821" r="6.43125" fill="#333333"/>
<circle cx="49.1949" cy="625.26" r="6.43125" fill="#333333"/>
<ellipse cx="77.4214" cy="573.096" rx="6.78854" ry="6.43125" fill="#333333"/>
<ellipse cx="77.4214" cy="599.536" rx="6.78854" ry="6.43125" fill="#333333"/>
<ellipse cx="77.4214" cy="625.975" rx="6.78854" ry="6.43125" fill="#333333"/>
<circle cx="105.648" cy="573.096" r="6.43125" fill="#333333"/>
<circle cx="105.648" cy="599.536" r="6.43125" fill="#333333"/>
<circle cx="105.648" cy="625.975" r="6.43125" fill="#333333"/>
<circle cx="134.232" cy="573.096" r="6.43125" fill="#333333"/>
<circle cx="134.232" cy="599.536" r="6.43125" fill="#333333"/>
<circle cx="134.232" cy="625.975" r="6.43125" fill="#333333"/>
</g>
<g opacity="0.4">
<ellipse cx="20.9682" cy="493.062" rx="6.78854" ry="6.43125" fill="#333333"/>
<ellipse cx="20.9682" cy="519.502" rx="6.78854" ry="6.43125" fill="#333333"/>
<ellipse cx="20.9682" cy="545.942" rx="6.78854" ry="6.43125" fill="#333333"/>
<circle cx="49.1949" cy="493.062" r="6.43125" fill="#333333"/>
<circle cx="49.1949" cy="519.502" r="6.43125" fill="#333333"/>
<circle cx="49.1949" cy="545.942" r="6.43125" fill="#333333"/>
<ellipse cx="77.4214" cy="493.777" rx="6.78854" ry="6.43125" fill="#333333"/>
<ellipse cx="77.4214" cy="520.216" rx="6.78854" ry="6.43125" fill="#333333"/>
<ellipse cx="77.4214" cy="546.656" rx="6.78854" ry="6.43125" fill="#333333"/>
<circle cx="105.648" cy="493.777" r="6.43125" fill="#333333"/>
<circle cx="105.648" cy="520.216" r="6.43125" fill="#333333"/>
<circle cx="105.648" cy="546.656" r="6.43125" fill="#333333"/>
<circle cx="134.232" cy="493.777" r="6.43125" fill="#333333"/>
<circle cx="134.232" cy="520.216" r="6.43125" fill="#333333"/>
<circle cx="134.232" cy="546.656" r="6.43125" fill="#333333"/>
</g>
<g opacity="0.4">
<ellipse cx="20.9682" cy="651.7" rx="6.78854" ry="6.43125" fill="#333333"/>
<ellipse cx="20.9682" cy="678.139" rx="6.78854" ry="6.43125" fill="#333333"/>
<ellipse cx="20.9682" cy="704.579" rx="6.78854" ry="6.43125" fill="#333333"/>
<circle cx="49.1949" cy="651.7" r="6.43125" fill="#333333"/>
<circle cx="49.1949" cy="678.139" r="6.43125" fill="#333333"/>
<circle cx="49.1949" cy="704.579" r="6.43125" fill="#333333"/>
<ellipse cx="77.4214" cy="652.414" rx="6.78854" ry="6.43125" fill="#333333"/>
<ellipse cx="77.4214" cy="678.854" rx="6.78854" ry="6.43125" fill="#333333"/>
<ellipse cx="77.4214" cy="705.294" rx="6.78854" ry="6.43125" fill="#333333"/>
<circle cx="105.648" cy="652.414" r="6.43125" fill="#333333"/>
<circle cx="105.648" cy="678.854" r="6.43125" fill="#333333"/>
<circle cx="105.648" cy="705.294" r="6.43125" fill="#333333"/>
<circle cx="134.232" cy="652.414" r="6.43125" fill="#333333"/>
<circle cx="134.232" cy="678.854" r="6.43125" fill="#333333"/>
<circle cx="134.232" cy="705.294" r="6.43125" fill="#333333"/>
</g>
<rect x="779.799" y="207.594" width="16.4354" height="585.372" transform="rotate(-135 779.799 207.594)" fill="#FFFCF5"/>
<rect x="389.111" y="-1.40112" width="334.003" height="334.003" transform="rotate(-45 389.111 -1.40112)" fill="#3E1FA7"/>
<rect x="443.756" y="771.522" width="416.034" height="416.034" transform="rotate(-45 443.756 771.522)" fill="#3E1FA7"/>
<rect x="194.605" y="-71.3877" width="16.4354" height="310.273" transform="rotate(-45 194.605 -71.3877)" fill="#3E1FA7"/>
<rect x="655.828" y="395.91" width="16.4354" height="585.372" transform="rotate(-45 655.828 395.91)" fill="#FFFCF5"/>
<g filter="url(#filter0_f_122_1976)">
<circle cx="1283.39" cy="205.085" r="6.43125" transform="rotate(-90 1283.39 205.085)" fill="#FFFCF5"/>
</g>
<g filter="url(#filter1_f_122_1976)">
<circle cx="1309.83" cy="205.085" r="6.43125" transform="rotate(-90 1309.83 205.085)" fill="#FFFCF5"/>
</g>
<g filter="url(#filter2_f_122_1976)">
<circle cx="1336.27" cy="205.085" r="6.43125" transform="rotate(-90 1336.27 205.085)" fill="#FFFCF5"/>
</g>
<g filter="url(#filter3_f_122_1976)">
<circle cx="1283.39" cy="176.502" r="6.43125" transform="rotate(-90 1283.39 176.502)" fill="#FFFCF5"/>
</g>
<g filter="url(#filter4_f_122_1976)">
<circle cx="1309.83" cy="176.502" r="6.43125" transform="rotate(-90 1309.83 176.502)" fill="#FFFCF5"/>
</g>
<g filter="url(#filter5_f_122_1976)">
<circle cx="1336.27" cy="176.502" r="6.43125" transform="rotate(-90 1336.27 176.502)" fill="#FFFCF5"/>
</g>
<g filter="url(#filter6_f_122_1976)">
<ellipse cx="1283.39" cy="148.276" rx="6.78854" ry="6.43125" transform="rotate(-90 1283.39 148.276)" fill="#FFFCF5"/>
</g>
<g filter="url(#filter7_f_122_1976)">
<ellipse cx="1309.83" cy="148.276" rx="6.78854" ry="6.43125" transform="rotate(-90 1309.83 148.276)" fill="#FFFCF5"/>
</g>
<g filter="url(#filter8_f_122_1976)">
<ellipse cx="1336.27" cy="148.276" rx="6.78854" ry="6.43125" transform="rotate(-90 1336.27 148.276)" fill="#FFFCF5"/>
</g>
<g filter="url(#filter9_f_122_1976)">
<circle cx="1283.39" cy="120.05" r="6.43125" transform="rotate(-90 1283.39 120.05)" fill="#FFFCF5"/>
</g>
<g filter="url(#filter10_f_122_1976)">
<circle cx="1309.83" cy="120.05" r="6.43125" transform="rotate(-90 1309.83 120.05)" fill="#FFFCF5"/>
</g>
<g filter="url(#filter11_f_122_1976)">
<circle cx="1336.27" cy="120.05" r="6.43125" transform="rotate(-90 1336.27 120.05)" fill="#FFFCF5"/>
</g>
<g filter="url(#filter12_f_122_1976)">
<ellipse cx="1284.11" cy="91.8238" rx="6.78854" ry="6.43125" transform="rotate(-90 1284.11 91.8238)" fill="#FFFCF5"/>
</g>
<g filter="url(#filter13_f_122_1976)">
<ellipse cx="1310.55" cy="91.8238" rx="6.78854" ry="6.43125" transform="rotate(-90 1310.55 91.8238)" fill="#FFFCF5"/>
</g>
<g filter="url(#filter14_f_122_1976)">
<ellipse cx="1336.99" cy="91.8238" rx="6.78854" ry="6.43125" transform="rotate(-90 1336.99 91.8238)" fill="#FFFCF5"/>
</g>
<g filter="url(#filter15_f_122_1976)">
<circle cx="1284.11" cy="63.5978" r="6.43125" transform="rotate(-90 1284.11 63.5978)" fill="#FFFCF5"/>
</g>
<g filter="url(#filter16_f_122_1976)">
<circle cx="1310.55" cy="63.5978" r="6.43125" transform="rotate(-90 1310.55 63.5978)" fill="#FFFCF5"/>
</g>
<g filter="url(#filter17_f_122_1976)">
<circle cx="1336.99" cy="63.5978" r="6.43125" transform="rotate(-90 1336.99 63.5978)" fill="#FFFCF5"/>
</g>
<g filter="url(#filter18_f_122_1976)">
<circle cx="1284.11" cy="35.0145" r="6.43125" transform="rotate(-90 1284.11 35.0145)" fill="#FFFCF5"/>
</g>
<g filter="url(#filter19_f_122_1976)">
<circle cx="1310.55" cy="35.0145" r="6.43125" transform="rotate(-90 1310.55 35.0145)" fill="#FFFCF5"/>
</g>
<g filter="url(#filter20_f_122_1976)">
<circle cx="1336.99" cy="35.0145" r="6.43125" transform="rotate(-90 1336.99 35.0145)" fill="#FFFCF5"/>
</g>
</g>
<defs>
<filter id="filter0_f_122_1976" x="1274.96" y="196.654" width="16.8623" height="16.8625" filterUnits="userSpaceOnUse" color-interpolation-filters="sRGB">
<feFlood flood-opacity="0" result="BackgroundImageFix"/>
<feBlend mode="normal" in="SourceGraphic" in2="BackgroundImageFix" result="shape"/>
<feGaussianBlur stdDeviation="1" result="effect1_foregroundBlur_122_1976"/>
</filter>
<filter id="filter1_f_122_1976" x="1301.4" y="196.654" width="16.8623" height="16.8625" filterUnits="userSpaceOnUse" color-interpolation-filters="sRGB">
<feFlood flood-opacity="0" result="BackgroundImageFix"/>
<feBlend mode="normal" in="SourceGraphic" in2="BackgroundImageFix" result="shape"/>
<feGaussianBlur stdDeviation="1" result="effect1_foregroundBlur_122_1976"/>
</filter>
<filter id="filter2_f_122_1976" x="1327.84" y="196.654" width="16.8623" height="16.8625" filterUnits="userSpaceOnUse" color-interpolation-filters="sRGB">
<feFlood flood-opacity="0" result="BackgroundImageFix"/>
<feBlend mode="normal" in="SourceGraphic" in2="BackgroundImageFix" result="shape"/>
<feGaussianBlur stdDeviation="1" result="effect1_foregroundBlur_122_1976"/>
</filter>
<filter id="filter3_f_122_1976" x="1274.96" y="168.071" width="16.8623" height="16.8625" filterUnits="userSpaceOnUse" color-interpolation-filters="sRGB">
<feFlood flood-opacity="0" result="BackgroundImageFix"/>
<feBlend mode="normal" in="SourceGraphic" in2="BackgroundImageFix" result="shape"/>
<feGaussianBlur stdDeviation="1" result="effect1_foregroundBlur_122_1976"/>
</filter>
<filter id="filter4_f_122_1976" x="1301.4" y="168.071" width="16.8623" height="16.8625" filterUnits="userSpaceOnUse" color-interpolation-filters="sRGB">
<feFlood flood-opacity="0" result="BackgroundImageFix"/>
<feBlend mode="normal" in="SourceGraphic" in2="BackgroundImageFix" result="shape"/>
<feGaussianBlur stdDeviation="1" result="effect1_foregroundBlur_122_1976"/>
</filter>
<filter id="filter5_f_122_1976" x="1327.84" y="168.071" width="16.8623" height="16.8625" filterUnits="userSpaceOnUse" color-interpolation-filters="sRGB">
<feFlood flood-opacity="0" result="BackgroundImageFix"/>
<feBlend mode="normal" in="SourceGraphic" in2="BackgroundImageFix" result="shape"/>
<feGaussianBlur stdDeviation="1" result="effect1_foregroundBlur_122_1976"/>
</filter>
<filter id="filter6_f_122_1976" x="1274.96" y="139.487" width="16.8623" height="17.5771" filterUnits="userSpaceOnUse" color-interpolation-filters="sRGB">
<feFlood flood-opacity="0" result="BackgroundImageFix"/>
<feBlend mode="normal" in="SourceGraphic" in2="BackgroundImageFix" result="shape"/>
<feGaussianBlur stdDeviation="1" result="effect1_foregroundBlur_122_1976"/>
</filter>
<filter id="filter7_f_122_1976" x="1301.4" y="139.487" width="16.8623" height="17.5771" filterUnits="userSpaceOnUse" color-interpolation-filters="sRGB">
<feFlood flood-opacity="0" result="BackgroundImageFix"/>
<feBlend mode="normal" in="SourceGraphic" in2="BackgroundImageFix" result="shape"/>
<feGaussianBlur stdDeviation="1" result="effect1_foregroundBlur_122_1976"/>
</filter>
<filter id="filter8_f_122_1976" x="1327.84" y="139.487" width="16.8623" height="17.5771" filterUnits="userSpaceOnUse" color-interpolation-filters="sRGB">
<feFlood flood-opacity="0" result="BackgroundImageFix"/>
<feBlend mode="normal" in="SourceGraphic" in2="BackgroundImageFix" result="shape"/>
<feGaussianBlur stdDeviation="1" result="effect1_foregroundBlur_122_1976"/>
</filter>
<filter id="filter9_f_122_1976" x="1274.96" y="111.619" width="16.8623" height="16.8625" filterUnits="userSpaceOnUse" color-interpolation-filters="sRGB">
<feFlood flood-opacity="0" result="BackgroundImageFix"/>
<feBlend mode="normal" in="SourceGraphic" in2="BackgroundImageFix" result="shape"/>
<feGaussianBlur stdDeviation="1" result="effect1_foregroundBlur_122_1976"/>
</filter>
<filter id="filter10_f_122_1976" x="1301.4" y="111.619" width="16.8623" height="16.8625" filterUnits="userSpaceOnUse" color-interpolation-filters="sRGB">
<feFlood flood-opacity="0" result="BackgroundImageFix"/>
<feBlend mode="normal" in="SourceGraphic" in2="BackgroundImageFix" result="shape"/>
<feGaussianBlur stdDeviation="1" result="effect1_foregroundBlur_122_1976"/>
</filter>
<filter id="filter11_f_122_1976" x="1327.84" y="111.619" width="16.8623" height="16.8625" filterUnits="userSpaceOnUse" color-interpolation-filters="sRGB">
<feFlood flood-opacity="0" result="BackgroundImageFix"/>
<feBlend mode="normal" in="SourceGraphic" in2="BackgroundImageFix" result="shape"/>
<feGaussianBlur stdDeviation="1" result="effect1_foregroundBlur_122_1976"/>
</filter>
<filter id="filter12_f_122_1976" x="1275.68" y="83.0352" width="16.8623" height="17.5771" filterUnits="userSpaceOnUse" color-interpolation-filters="sRGB">
<feFlood flood-opacity="0" result="BackgroundImageFix"/>
<feBlend mode="normal" in="SourceGraphic" in2="BackgroundImageFix" result="shape"/>
<feGaussianBlur stdDeviation="1" result="effect1_foregroundBlur_122_1976"/>
</filter>
<filter id="filter13_f_122_1976" x="1302.12" y="83.0352" width="16.8623" height="17.5771" filterUnits="userSpaceOnUse" color-interpolation-filters="sRGB">
<feFlood flood-opacity="0" result="BackgroundImageFix"/>
<feBlend mode="normal" in="SourceGraphic" in2="BackgroundImageFix" result="shape"/>
<feGaussianBlur stdDeviation="1" result="effect1_foregroundBlur_122_1976"/>
</filter>
<filter id="filter14_f_122_1976" x="1328.55" y="83.0352" width="16.8623" height="17.5771" filterUnits="userSpaceOnUse" color-interpolation-filters="sRGB">
<feFlood flood-opacity="0" result="BackgroundImageFix"/>
<feBlend mode="normal" in="SourceGraphic" in2="BackgroundImageFix" result="shape"/>
<feGaussianBlur stdDeviation="1" result="effect1_foregroundBlur_122_1976"/>
</filter>
<filter id="filter15_f_122_1976" x="1275.68" y="55.1665" width="16.8623" height="16.8625" filterUnits="userSpaceOnUse" color-interpolation-filters="sRGB">
<feFlood flood-opacity="0" result="BackgroundImageFix"/>
<feBlend mode="normal" in="SourceGraphic" in2="BackgroundImageFix" result="shape"/>
<feGaussianBlur stdDeviation="1" result="effect1_foregroundBlur_122_1976"/>
</filter>
<filter id="filter16_f_122_1976" x="1302.12" y="55.1665" width="16.8623" height="16.8625" filterUnits="userSpaceOnUse" color-interpolation-filters="sRGB">
<feFlood flood-opacity="0" result="BackgroundImageFix"/>
<feBlend mode="normal" in="SourceGraphic" in2="BackgroundImageFix" result="shape"/>
<feGaussianBlur stdDeviation="1" result="effect1_foregroundBlur_122_1976"/>
</filter>
<filter id="filter17_f_122_1976" x="1328.55" y="55.1665" width="16.8623" height="16.8625" filterUnits="userSpaceOnUse" color-interpolation-filters="sRGB">
<feFlood flood-opacity="0" result="BackgroundImageFix"/>
<feBlend mode="normal" in="SourceGraphic" in2="BackgroundImageFix" result="shape"/>
<feGaussianBlur stdDeviation="1" result="effect1_foregroundBlur_122_1976"/>
</filter>
<filter id="filter18_f_122_1976" x="1275.68" y="26.5833" width="16.8623" height="16.8625" filterUnits="userSpaceOnUse" color-interpolation-filters="sRGB">
<feFlood flood-opacity="0" result="BackgroundImageFix"/>
<feBlend mode="normal" in="SourceGraphic" in2="BackgroundImageFix" result="shape"/>
<feGaussianBlur stdDeviation="1" result="effect1_foregroundBlur_122_1976"/>
</filter>
<filter id="filter19_f_122_1976" x="1302.12" y="26.5833" width="16.8623" height="16.8625" filterUnits="userSpaceOnUse" color-interpolation-filters="sRGB">
<feFlood flood-opacity="0" result="BackgroundImageFix"/>
<feBlend mode="normal" in="SourceGraphic" in2="BackgroundImageFix" result="shape"/>
<feGaussianBlur stdDeviation="1" result="effect1_foregroundBlur_122_1976"/>
</filter>
<filter id="filter20_f_122_1976" x="1328.55" y="26.5833" width="16.8623" height="16.8625" filterUnits="userSpaceOnUse" color-interpolation-filters="sRGB">
<feFlood flood-opacity="0" result="BackgroundImageFix"/>
<feBlend mode="normal" in="SourceGraphic" in2="BackgroundImageFix" result="shape"/>
<feGaussianBlur stdDeviation="1" result="effect1_foregroundBlur_122_1976"/>
</filter>
<clipPath id="clip0_122_1976">
<rect width="1440" height="744" fill="white"/>
</clipPath>
</defs>
</svg>
