<svg width="56" height="56" viewBox="0 0 56 56" fill="none" xmlns="http://www.w3.org/2000/svg">
<path d="M23.4876 26.072C23.6636 25.8747 23.8503 25.696 24.0476 25.536C24.245 25.376 24.453 25.24 24.6716 25.128C24.8956 25.0107 25.1303 24.9227 25.3756 24.864C25.6263 24.8 25.8956 24.768 26.1836 24.768C26.6263 24.768 27.0156 24.8427 27.3516 24.992C27.693 25.136 27.9756 25.344 28.1996 25.616C28.429 25.8827 28.6023 26.2053 28.7196 26.584C28.837 26.9627 28.8956 27.3813 28.8956 27.84V33H27.4636V27.84C27.4636 27.2267 27.3223 26.752 27.0396 26.416C26.7623 26.0747 26.3383 25.904 25.7676 25.904C25.3463 25.904 24.9516 26.0053 24.5836 26.208C24.221 26.4107 23.885 26.6853 23.5756 27.032V33H22.1436V24.896H22.9996C23.2023 24.896 23.3276 24.9947 23.3756 25.192L23.4876 26.072ZM36.4895 28.064C36.4895 27.7333 36.4415 27.432 36.3455 27.16C36.2548 26.8827 36.1188 26.6453 35.9375 26.448C35.7615 26.2453 35.5455 26.0907 35.2895 25.984C35.0335 25.872 34.7428 25.816 34.4175 25.816C33.7348 25.816 33.1935 26.016 32.7935 26.416C32.3988 26.8107 32.1535 27.36 32.0575 28.064H36.4895ZM37.6415 31.864C37.4655 32.0773 37.2548 32.264 37.0095 32.424C36.7642 32.5787 36.5002 32.7067 36.2175 32.808C35.9402 32.9093 35.6522 32.984 35.3535 33.032C35.0548 33.0853 34.7588 33.112 34.4655 33.112C33.9055 33.112 33.3882 33.0187 32.9135 32.832C32.4442 32.64 32.0362 32.3627 31.6895 32C31.3482 31.632 31.0815 31.1787 30.8895 30.64C30.6975 30.1013 30.6015 29.4827 30.6015 28.784C30.6015 28.2187 30.6868 27.6907 30.8575 27.2C31.0335 26.7093 31.2842 26.2853 31.6095 25.928C31.9348 25.5653 32.3322 25.2827 32.8015 25.08C33.2708 24.872 33.7988 24.768 34.3855 24.768C34.8708 24.768 35.3188 24.8507 35.7295 25.016C36.1455 25.176 36.5028 25.4107 36.8015 25.72C37.1055 26.024 37.3428 26.4027 37.5135 26.856C37.6842 27.304 37.7695 27.816 37.7695 28.392C37.7695 28.616 37.7455 28.7653 37.6975 28.84C37.6495 28.9147 37.5588 28.952 37.4255 28.952H32.0095C32.0255 29.464 32.0948 29.9093 32.2175 30.288C32.3455 30.6667 32.5215 30.984 32.7455 31.24C32.9695 31.4907 33.2362 31.68 33.5455 31.808C33.8548 31.9307 34.2015 31.992 34.5855 31.992C34.9428 31.992 35.2495 31.952 35.5055 31.872C35.7668 31.7867 35.9908 31.696 36.1775 31.6C36.3642 31.504 36.5188 31.416 36.6415 31.336C36.7695 31.2507 36.8788 31.208 36.9695 31.208C37.0868 31.208 37.1775 31.2533 37.2415 31.344L37.6415 31.864ZM46.0653 33H44.6973C44.5799 33 44.4866 32.9707 44.4173 32.912C44.3533 32.848 44.2999 32.7787 44.2573 32.704L42.2173 29.528C42.1959 29.6027 42.1719 29.6773 42.1453 29.752C42.1239 29.8213 42.0919 29.8853 42.0493 29.944L40.1613 32.704C40.1079 32.7787 40.0493 32.848 39.9853 32.912C39.9266 32.9707 39.8439 33 39.7373 33H38.4653L41.3053 28.84L38.5773 24.896H39.9453C40.0626 24.896 40.1479 24.9147 40.2013 24.952C40.2546 24.9893 40.3026 25.0427 40.3453 25.112L42.3373 28.152C42.3799 27.9973 42.4466 27.848 42.5373 27.704L44.2813 25.144C44.3293 25.0693 44.3799 25.0107 44.4333 24.968C44.4919 24.92 44.5613 24.896 44.6413 24.896H45.9533L43.2253 28.768L46.0653 33ZM49.866 33.128C49.226 33.128 48.7327 32.9493 48.386 32.592C48.0447 32.2347 47.874 31.72 47.874 31.048V26.088H46.898C46.8127 26.088 46.7407 26.064 46.682 26.016C46.6233 25.9627 46.594 25.8827 46.594 25.776V25.208L47.922 25.04L48.25 22.536C48.266 22.456 48.3007 22.392 48.354 22.344C48.4127 22.2907 48.4873 22.264 48.578 22.264H49.298V25.056H51.642V26.088H49.298V30.952C49.298 31.2933 49.3807 31.5467 49.546 31.712C49.7113 31.8773 49.9247 31.96 50.186 31.96C50.3353 31.96 50.4633 31.9413 50.57 31.904C50.682 31.8613 50.778 31.816 50.858 31.768C50.938 31.72 51.0047 31.6773 51.058 31.64C51.1167 31.5973 51.1673 31.576 51.21 31.576C51.2847 31.576 51.3513 31.6213 51.41 31.712L51.826 32.392C51.5807 32.6213 51.2847 32.8027 50.938 32.936C50.5913 33.064 50.234 33.128 49.866 33.128Z" fill="black"/>
<path d="M24.5 7L3 28.5L24.5 50" stroke="black" stroke-width="2"/>
</svg>
