<svg width="56" height="56" viewBox="0 0 56 56" fill="none" xmlns="http://www.w3.org/2000/svg">
<path d="M6.48763 26.072C6.66363 25.8747 6.85029 25.696 7.04763 25.536C7.24496 25.376 7.45296 25.24 7.67163 25.128C7.89563 25.0107 8.13029 24.9227 8.37563 24.864C8.62629 24.8 8.89563 24.768 9.18363 24.768C9.62629 24.768 10.0156 24.8427 10.3516 24.992C10.693 25.136 10.9756 25.344 11.1996 25.616C11.429 25.8827 11.6023 26.2053 11.7196 26.584C11.837 26.9627 11.8956 27.3813 11.8956 27.84V33H10.4636V27.84C10.4636 27.2267 10.3223 26.752 10.0396 26.416C9.76229 26.0747 9.33829 25.904 8.76763 25.904C8.34629 25.904 7.95163 26.0053 7.58363 26.208C7.22096 26.4107 6.88496 26.6853 6.57563 27.032V33H5.14363V24.896H5.99963C6.20229 24.896 6.32763 24.9947 6.37563 25.192L6.48763 26.072ZM19.4895 28.064C19.4895 27.7333 19.4415 27.432 19.3455 27.16C19.2548 26.8827 19.1188 26.6453 18.9375 26.448C18.7615 26.2453 18.5455 26.0907 18.2895 25.984C18.0335 25.872 17.7428 25.816 17.4175 25.816C16.7348 25.816 16.1935 26.016 15.7935 26.416C15.3988 26.8107 15.1535 27.36 15.0575 28.064H19.4895ZM20.6415 31.864C20.4655 32.0773 20.2548 32.264 20.0095 32.424C19.7642 32.5787 19.5002 32.7067 19.2175 32.808C18.9402 32.9093 18.6522 32.984 18.3535 33.032C18.0548 33.0853 17.7588 33.112 17.4655 33.112C16.9055 33.112 16.3882 33.0187 15.9135 32.832C15.4442 32.64 15.0362 32.3627 14.6895 32C14.3482 31.632 14.0815 31.1787 13.8895 30.64C13.6975 30.1013 13.6015 29.4827 13.6015 28.784C13.6015 28.2187 13.6868 27.6907 13.8575 27.2C14.0335 26.7093 14.2842 26.2853 14.6095 25.928C14.9348 25.5653 15.3322 25.2827 15.8015 25.08C16.2708 24.872 16.7988 24.768 17.3855 24.768C17.8708 24.768 18.3188 24.8507 18.7295 25.016C19.1455 25.176 19.5028 25.4107 19.8015 25.72C20.1055 26.024 20.3428 26.4027 20.5135 26.856C20.6842 27.304 20.7695 27.816 20.7695 28.392C20.7695 28.616 20.7455 28.7653 20.6975 28.84C20.6495 28.9147 20.5588 28.952 20.4255 28.952H15.0095C15.0255 29.464 15.0948 29.9093 15.2175 30.288C15.3455 30.6667 15.5215 30.984 15.7455 31.24C15.9695 31.4907 16.2362 31.68 16.5455 31.808C16.8548 31.9307 17.2015 31.992 17.5855 31.992C17.9428 31.992 18.2495 31.952 18.5055 31.872C18.7668 31.7867 18.9908 31.696 19.1775 31.6C19.3642 31.504 19.5188 31.416 19.6415 31.336C19.7695 31.2507 19.8788 31.208 19.9695 31.208C20.0868 31.208 20.1775 31.2533 20.2415 31.344L20.6415 31.864ZM29.0653 33H27.6973C27.5799 33 27.4866 32.9707 27.4173 32.912C27.3533 32.848 27.2999 32.7787 27.2573 32.704L25.2173 29.528C25.1959 29.6027 25.1719 29.6773 25.1453 29.752C25.1239 29.8213 25.0919 29.8853 25.0493 29.944L23.1613 32.704C23.1079 32.7787 23.0493 32.848 22.9853 32.912C22.9266 32.9707 22.8439 33 22.7373 33H21.4653L24.3053 28.84L21.5773 24.896H22.9453C23.0626 24.896 23.1479 24.9147 23.2013 24.952C23.2546 24.9893 23.3026 25.0427 23.3453 25.112L25.3373 28.152C25.3799 27.9973 25.4466 27.848 25.5373 27.704L27.2813 25.144C27.3293 25.0693 27.3799 25.0107 27.4333 24.968C27.4919 24.92 27.5613 24.896 27.6413 24.896H28.9533L26.2253 28.768L29.0653 33ZM32.866 33.128C32.226 33.128 31.7327 32.9493 31.386 32.592C31.0447 32.2347 30.874 31.72 30.874 31.048V26.088H29.898C29.8127 26.088 29.7407 26.064 29.682 26.016C29.6233 25.9627 29.594 25.8827 29.594 25.776V25.208L30.922 25.04L31.25 22.536C31.266 22.456 31.3007 22.392 31.354 22.344C31.4127 22.2907 31.4873 22.264 31.578 22.264H32.298V25.056H34.642V26.088H32.298V30.952C32.298 31.2933 32.3807 31.5467 32.546 31.712C32.7113 31.8773 32.9247 31.96 33.186 31.96C33.3353 31.96 33.4633 31.9413 33.57 31.904C33.682 31.8613 33.778 31.816 33.858 31.768C33.938 31.72 34.0047 31.6773 34.058 31.64C34.1167 31.5973 34.1673 31.576 34.21 31.576C34.2847 31.576 34.3513 31.6213 34.41 31.712L34.826 32.392C34.5807 32.6213 34.2847 32.8027 33.938 32.936C33.5913 33.064 33.234 33.128 32.866 33.128Z" fill="#FFFCF5"/>
<path d="M31.5 7L53 28.5L31.5 50" stroke="#FFFCF5" stroke-width="2"/>
</svg>
