<svg width="40" height="40" viewBox="0 0 40 40" fill="none" xmlns="http://www.w3.org/2000/svg">
<g clip-path="url(#clip0_122_1923)">
<path d="M3 10.5V12H17.25V23.25H12.633C12.2985 21.9607 11.139 21 9.75 21C8.361 21 7.2015 21.9607 6.867 23.25H6V19.5H4.5V24.75H6.867C7.2015 26.0393 8.361 27 9.75 27C11.139 27 12.2985 26.0393 12.633 24.75H18.867C19.2015 26.0393 20.361 27 21.75 27C23.139 27 24.2985 26.0393 24.633 24.75H27V18.633L26.9528 18.5153L25.4528 14.0153L25.29 13.5H18.75V10.5H3ZM3.75 13.5V15H10.5V13.5H3.75ZM18.75 15H24.2108L25.5 18.8438V23.25H24.633C24.2985 21.9607 23.139 21 21.75 21C20.361 21 19.2015 21.9607 18.867 23.25H18.75V15ZM4.5 16.5V18H9V16.5H4.5ZM9.75 22.5C10.5877 22.5 11.25 23.1622 11.25 24C11.25 24.8378 10.5877 25.5 9.75 25.5C8.91225 25.5 8.25 24.8378 8.25 24C8.25 23.1622 8.91225 22.5 9.75 22.5ZM21.75 22.5C22.5877 22.5 23.25 23.1622 23.25 24C23.25 24.8378 22.5877 25.5 21.75 25.5C20.9123 25.5 20.25 24.8378 20.25 24C20.25 23.1622 20.9123 22.5 21.75 22.5Z" fill="black"/>
<path d="M17 21V22.25H28.875V31.625H25.0275C24.7487 30.5506 23.7825 29.75 22.625 29.75C21.4675 29.75 20.5013 30.5506 20.2225 31.625H19.5V28.5H18.25V32.875H20.2225C20.5013 33.9494 21.4675 34.75 22.625 34.75C23.7825 34.75 24.7487 33.9494 25.0275 32.875H30.2225C30.5013 33.9494 31.4675 34.75 32.625 34.75C33.7825 34.75 34.7488 33.9494 35.0275 32.875H37V27.7775L36.9606 27.6794L35.7106 23.9294L35.575 23.5H30.125V21H17ZM17.625 23.5V24.75H23.25V23.5H17.625ZM30.125 24.75H34.6756L35.75 27.9531V31.625H35.0275C34.7488 30.5506 33.7825 29.75 32.625 29.75C31.4675 29.75 30.5013 30.5506 30.2225 31.625H30.125V24.75ZM18.25 26V27.25H22V26H18.25ZM22.625 31C23.3231 31 23.875 31.5519 23.875 32.25C23.875 32.9481 23.3231 33.5 22.625 33.5C21.9269 33.5 21.375 32.9481 21.375 32.25C21.375 31.5519 21.9269 31 22.625 31ZM32.625 31C33.3231 31 33.875 31.5519 33.875 32.25C33.875 32.9481 33.3231 33.5 32.625 33.5C31.9269 33.5 31.375 32.9481 31.375 32.25C31.375 31.5519 31.9269 31 32.625 31Z" fill="black"/>
</g>
<defs>
<clipPath id="clip0_122_1923">
<rect width="40" height="40" fill="white"/>
</clipPath>
</defs>
</svg>
