<svg width="24" height="24" viewBox="0 0 24 24" fill="none" xmlns="http://www.w3.org/2000/svg">
<g clip-path="url(#clip0_122_1900)">
<path fill-rule="evenodd" clip-rule="evenodd" d="M11.9814 4.14276C11.3842 4.13198 10.7908 4.23907 10.235 4.4579C9.67926 4.67673 9.17211 5.00301 8.74259 5.41806C8.31308 5.83312 7.96962 6.3288 7.73189 6.87674C7.49416 7.42468 7.36681 8.01412 7.35714 8.61133V14.857C7.35714 15.2359 7.20663 15.5993 6.93872 15.8672C6.67081 16.1351 6.30745 16.2856 5.92857 16.2856H4.14286C3.57454 16.2856 3.02949 16.0599 2.62763 15.658C2.22576 15.2561 2 14.7111 2 14.1428V11.2856C2 10.7173 2.22576 10.1723 2.62763 9.77039C3.02949 9.36853 3.57454 9.14276 4.14286 9.14276H5.21429V8.58562C5.22732 7.70761 5.41319 6.84077 5.76128 6.0346C6.10936 5.22843 6.61285 4.49873 7.24298 3.88717C7.87311 3.27561 8.61755 2.79417 9.43376 2.47035C10.25 2.14653 11.122 1.98667 12 1.9999C12.878 1.98667 13.75 2.14653 14.5662 2.47035C15.3825 2.79417 16.1269 3.27561 16.757 3.88717C17.3872 4.49873 17.8906 5.22843 18.2387 6.0346C18.5868 6.84077 18.7727 7.70761 18.7857 8.58562V9.14276H19.8571C20.4255 9.14276 20.9705 9.36853 21.3724 9.77039C21.7742 10.1723 22 10.7173 22 11.2856V14.1428C22 14.7111 21.7742 15.2561 21.3724 15.658C20.9705 16.0599 20.4255 16.2856 19.8571 16.2856H18.7857V16.9999C18.7859 17.9653 18.4306 18.8969 17.7877 19.617C17.1448 20.3372 16.2592 20.7954 15.3 20.9042C15.1137 21.2368 14.8421 21.5137 14.5131 21.7063C14.1842 21.8989 13.8098 22.0002 13.4286 21.9999H11.2857C10.7174 21.9999 10.1723 21.7741 9.77049 21.3723C9.36862 20.9704 9.14286 20.4254 9.14286 19.857C9.14286 19.2887 9.36862 18.7437 9.77049 18.3418C10.1723 17.94 10.7174 17.7142 11.2857 17.7142H13.4286C14.2029 17.7142 14.8814 18.1242 15.2571 18.7399C15.6509 18.6494 16.0023 18.4281 16.254 18.112C16.5057 17.796 16.6428 17.4039 16.6429 16.9999V8.6099C16.6331 8.00962 16.5044 7.41723 16.2642 6.86698C16.0241 6.31673 15.6773 5.81954 15.2438 5.40415C14.8104 4.98875 14.2989 4.6634 13.7389 4.44689C13.1789 4.23038 12.5816 4.12701 11.9814 4.14276Z" fill="black"/>
</g>
<defs>
<clipPath id="clip0_122_1900">
<rect width="20" height="20" fill="white" transform="translate(2 2)"/>
</clipPath>
</defs>
</svg>
