<svg width="40" height="40" viewBox="0 0 40 40" fill="none" xmlns="http://www.w3.org/2000/svg">
<path d="M29.3984 15.8594H31.1406L23.7031 28H21.9766L29.3984 15.8594ZM23.5547 21.4531C23.1693 21.4531 22.8229 21.4089 22.5156 21.3203C22.2083 21.2266 21.9453 21.0729 21.7266 20.8594C21.5078 20.6406 21.3385 20.3542 21.2188 20C21.1042 19.6406 21.0469 19.1927 21.0469 18.6562C21.0469 18.1146 21.1042 17.6641 21.2188 17.3047C21.3385 16.9453 21.5078 16.6589 21.7266 16.4453C21.9453 16.2318 22.2083 16.0807 22.5156 15.9922C22.8229 15.9036 23.1693 15.8594 23.5547 15.8594C23.9349 15.8594 24.2786 15.9036 24.5859 15.9922C24.8984 16.0807 25.1641 16.2318 25.3828 16.4453C25.6016 16.6589 25.7708 16.9453 25.8906 17.3047C26.0104 17.6641 26.0703 18.1146 26.0703 18.6562C26.0703 19.1927 26.0104 19.6406 25.8906 20C25.7708 20.3542 25.6016 20.6406 25.3828 20.8594C25.1641 21.0729 24.8984 21.2266 24.5859 21.3203C24.2786 21.4089 23.9349 21.4531 23.5547 21.4531ZM23.5547 20.0156C23.7318 20.0156 23.8828 19.9974 24.0078 19.9609C24.1328 19.9193 24.2344 19.849 24.3125 19.75C24.3958 19.6458 24.4557 19.5078 24.4922 19.3359C24.5286 19.1589 24.5469 18.9323 24.5469 18.6562C24.5469 18.3802 24.5286 18.1562 24.4922 17.9844C24.4557 17.8073 24.3958 17.6693 24.3125 17.5703C24.2344 17.4661 24.1328 17.3958 24.0078 17.3594C23.8828 17.3177 23.7318 17.2969 23.5547 17.2969C23.388 17.2969 23.2422 17.3177 23.1172 17.3594C22.9922 17.3958 22.888 17.4661 22.8047 17.5703C22.7214 17.6693 22.6589 17.8073 22.6172 17.9844C22.5807 18.1562 22.5625 18.3802 22.5625 18.6562C22.5625 18.9323 22.5807 19.1589 22.6172 19.3359C22.6589 19.5078 22.7214 19.6458 22.8047 19.75C22.888 19.849 22.9922 19.9193 23.1172 19.9609C23.2422 19.9974 23.388 20.0156 23.5547 20.0156ZM26.9609 25.4375C26.9609 24.901 27.0208 24.4557 27.1406 24.1016C27.2604 23.7422 27.4297 23.4557 27.6484 23.2422C27.8672 23.0234 28.1302 22.8698 28.4375 22.7812C28.75 22.6875 29.0964 22.6406 29.4766 22.6406C29.862 22.6406 30.2109 22.6875 30.5234 22.7812C30.8359 22.8698 31.1016 23.0234 31.3203 23.2422C31.5391 23.4557 31.7083 23.7422 31.8281 24.1016C31.9479 24.4557 32.0078 24.901 32.0078 25.4375C32.0078 25.9792 31.9479 26.4297 31.8281 26.7891C31.7083 27.1484 31.5391 27.4375 31.3203 27.6562C31.1016 27.8698 30.8359 28.0208 30.5234 28.1094C30.2109 28.1979 29.862 28.2422 29.4766 28.2422C29.0964 28.2422 28.75 28.1979 28.4375 28.1094C28.1302 28.0208 27.8672 27.8698 27.6484 27.6562C27.4297 27.4375 27.2604 27.1484 27.1406 26.7891C27.0208 26.4297 26.9609 25.9792 26.9609 25.4375ZM28.4844 25.4375C28.4844 25.7135 28.5026 25.9401 28.5391 26.1172C28.5755 26.2943 28.6328 26.4349 28.7109 26.5391C28.7943 26.638 28.8984 26.7057 29.0234 26.7422C29.1484 26.7786 29.2995 26.7969 29.4766 26.7969C29.6536 26.7969 29.8047 26.7786 29.9297 26.7422C30.0547 26.7057 30.1562 26.638 30.2344 26.5391C30.3177 26.4349 30.3776 26.2943 30.4141 26.1172C30.4505 25.9401 30.4688 25.7135 30.4688 25.4375C30.4688 25.1615 30.4505 24.9375 30.4141 24.7656C30.3776 24.5885 30.3177 24.4505 30.2344 24.3516C30.1562 24.2474 30.0547 24.1771 29.9297 24.1406C29.8047 24.099 29.6536 24.0781 29.4766 24.0781C29.2995 24.0781 29.1484 24.099 29.0234 24.1406C28.8984 24.1771 28.7943 24.2474 28.7109 24.3516C28.6328 24.4505 28.5755 24.5885 28.5391 24.7656C28.5026 24.9375 28.4844 25.1615 28.4844 25.4375Z" fill="black"/>
<path d="M17.8165 10.1116L19.1229 10.0839L13.7388 19.3055L12.4442 19.3329L17.8165 10.1116ZM13.5235 14.3988C13.2345 14.4049 12.9741 14.3772 12.7423 14.3157C12.5104 14.2503 12.3107 14.1392 12.1433 13.9826C11.9758 13.822 11.8443 13.6099 11.7489 13.3463C11.6573 13.0786 11.6072 12.7437 11.5987 12.3414C11.5901 11.9352 11.6259 11.5965 11.7061 11.3252C11.7902 11.0539 11.9126 10.8364 12.0732 10.6728C12.2338 10.5092 12.4287 10.3917 12.6577 10.3205C12.8867 10.2492 13.1457 10.2105 13.4347 10.2044C13.7198 10.1984 13.9782 10.2261 14.2101 10.2876C14.4458 10.349 14.6474 10.4581 14.8148 10.6147C14.9822 10.7714 15.1137 10.9835 15.2092 11.251C15.3047 11.5186 15.3568 11.8555 15.3654 12.2616C15.3739 12.6639 15.3361 13.0007 15.252 13.2721C15.1678 13.5395 15.0454 13.757 14.8849 13.9245C14.7242 14.0881 14.5275 14.2075 14.2947 14.2828C14.0657 14.3541 13.8086 14.3927 13.5235 14.3988ZM13.5007 13.3209C13.6335 13.3181 13.7464 13.302 13.8396 13.2727C13.9327 13.2394 14.0077 13.1851 14.0647 13.1097C14.1255 13.0302 14.1683 12.9258 14.1929 12.7963C14.2174 12.663 14.2275 12.4928 14.2231 12.2858C14.2187 12.0788 14.2015 11.9112 14.1714 11.7829C14.1412 11.6507 14.0941 11.5481 14.0301 11.4753C13.9699 11.3984 13.8926 11.3473 13.7983 11.3219C13.7039 11.2927 13.5903 11.2795 13.4575 11.2823C13.3325 11.2849 13.2235 11.3029 13.1305 11.3361C13.0373 11.3654 12.9603 11.4198 12.8995 11.4992C12.8386 11.5747 12.7939 11.6792 12.7655 11.8127C12.7409 11.9421 12.7307 12.1103 12.7351 12.3173C12.7395 12.5243 12.7568 12.6939 12.7869 12.8261C12.8209 12.9543 12.87 13.0568 12.9341 13.1336C12.9982 13.2065 13.0774 13.2576 13.1718 13.2868C13.2661 13.3122 13.3757 13.3235 13.5007 13.3209ZM16.1409 17.3323C16.1324 16.93 16.1702 16.5952 16.2544 16.3277C16.3385 16.0563 16.4609 15.8388 16.6215 15.6752C16.7821 15.5078 16.9769 15.3884 17.2059 15.3171C17.4387 15.2418 17.6977 15.2012 17.9828 15.1951C18.2718 15.189 18.5342 15.2186 18.77 15.284C19.0057 15.3454 19.2073 15.4564 19.3748 15.6169C19.5423 15.7736 19.6737 15.9857 19.7693 16.2533C19.8647 16.5169 19.9167 16.8499 19.9252 17.2521C19.9338 17.6583 19.8961 17.9971 19.8119 18.2684C19.7278 18.5398 19.6055 18.7592 19.4449 18.9267C19.2843 19.0903 19.0875 19.2078 18.8546 19.2792C18.6217 19.3505 18.3607 19.3893 18.0717 19.3954C17.7866 19.4014 17.5262 19.3737 17.2905 19.3123C17.0587 19.2508 16.8591 19.1417 16.6916 18.9851C16.5241 18.8245 16.3926 18.6104 16.2971 18.3429C16.2016 18.0753 16.1495 17.7384 16.1409 17.3323ZM17.2832 17.3081C17.2876 17.5151 17.3049 17.6847 17.335 17.8169C17.3652 17.9491 17.4104 18.0536 17.4706 18.1305C17.5347 18.2034 17.6138 18.2525 17.7081 18.2778C17.8025 18.3032 17.916 18.3144 18.0488 18.3116C18.1816 18.3088 18.2945 18.2928 18.3877 18.2634C18.4808 18.2341 18.5559 18.1817 18.6129 18.1063C18.6738 18.0269 18.7164 17.9205 18.741 17.7871C18.7655 17.6537 18.7756 17.4836 18.7712 17.2766C18.7668 17.0696 18.7496 16.902 18.7195 16.7737C18.6893 16.6415 18.6422 16.5389 18.5782 16.466C18.5179 16.3892 18.4407 16.3381 18.3464 16.3127C18.252 16.2834 18.1384 16.2702 18.0056 16.273C17.8728 16.2758 17.7599 16.2939 17.6668 16.3271C17.5737 16.3564 17.4967 16.4108 17.4359 16.4902C17.3789 16.5657 17.3381 16.6701 17.3136 16.8034C17.289 16.9329 17.2788 17.1011 17.2832 17.3081Z" fill="black"/>
</svg>
