<svg width="40" height="40" viewBox="0 0 40 40" fill="none" xmlns="http://www.w3.org/2000/svg">
<g clip-path="url(#clip0_122_1797)">
<path fill-rule="evenodd" clip-rule="evenodd" d="M13.5 7C12.9095 6.99988 12.3285 7.14917 11.8112 7.43397C11.294 7.71877 10.8571 8.12983 10.5414 8.62887C10.2257 9.12791 10.0414 9.69872 10.0057 10.2881C9.96995 10.8776 10.0839 11.4665 10.337 12H8C7.73478 12 7.48043 12.1054 7.29289 12.2929C7.10536 12.4804 7 12.7348 7 13V17C7 17.2652 7.10536 17.5196 7.29289 17.7071C7.48043 17.8946 7.73478 18 8 18V25C8 25.7957 8.31607 26.5587 8.87868 27.1213C9.44129 27.6839 10.2044 28 11 28H23C23.7956 28 24.5587 27.6839 25.1213 27.1213C25.6839 26.5587 26 25.7957 26 25V18C26.2652 18 26.5196 17.8946 26.7071 17.7071C26.8946 17.5196 27 17.2652 27 17V13C27 12.7348 26.8946 12.4804 26.7071 12.2929C26.5196 12.1054 26.2652 12 26 12H23.663C23.9161 11.4665 24.03 10.8776 23.9943 10.2881C23.9586 9.69872 23.7743 9.12791 23.4586 8.62887C23.1429 8.12983 22.706 7.71877 22.1888 7.43397C21.6715 7.14917 21.0905 6.99988 20.5 7C19.8288 6.99929 19.166 7.14903 18.5603 7.4382C17.9546 7.72738 17.4215 8.14864 17 8.671C16.5785 8.14864 16.0454 7.72738 15.4397 7.4382C14.834 7.14903 14.1712 6.99929 13.5 7ZM18 26H23C23.2652 26 23.5196 25.8946 23.7071 25.7071C23.8946 25.5196 24 25.2652 24 25V18H18V26ZM16 18V26H11C10.7348 26 10.4804 25.8946 10.2929 25.7071C10.1054 25.5196 10 25.2652 10 25V18H16ZM20.5 12C20.8978 12 21.2794 11.842 21.5607 11.5607C21.842 11.2794 22 10.8978 22 10.5C22 10.1022 21.842 9.72065 21.5607 9.43934C21.2794 9.15804 20.8978 9 20.5 9C19.837 9 19.2011 9.26339 18.7322 9.73224C18.2634 10.2011 18 10.837 18 11.5V12H20.5ZM16 12V11.5C16 10.837 15.7366 10.2011 15.2678 9.73224C14.7989 9.26339 14.163 9 13.5 9C13.1022 9 12.7206 9.15804 12.4393 9.43934C12.158 9.72065 12 10.1022 12 10.5C12 10.8978 12.158 11.2794 12.4393 11.5607C12.7206 11.842 13.1022 12 13.5 12H16Z" fill="#ADC1D1"/>
<g clip-path="url(#clip1_122_1797)">
<path fill-rule="evenodd" clip-rule="evenodd" d="M27.6509 17.4209C27.2496 17.3026 26.8233 17.2937 26.4114 17.3951C25.9996 17.4964 25.6157 17.7047 25.2954 18.0005C24.9751 18.2964 24.7289 18.6701 24.5797 19.087C24.4305 19.5039 24.3831 19.9504 24.4419 20.3849L22.854 19.9171C22.6738 19.864 22.4787 19.8889 22.3115 19.9862C22.1443 20.0836 22.0188 20.2455 21.9626 20.4363L21.1148 23.314C21.0586 23.5048 21.0763 23.7089 21.1639 23.8814C21.2516 24.0538 21.4021 24.1805 21.5823 24.2336L20.0986 29.2696C19.93 29.842 19.983 30.4543 20.246 30.9716C20.509 31.489 20.9605 31.8692 21.5011 32.0284L29.6546 34.4306C30.1952 34.5899 30.7807 34.5152 31.2822 34.2231C31.7837 33.931 32.1602 33.4453 32.3289 32.8729L33.8126 27.8369C33.9928 27.89 34.1879 27.8651 34.3551 27.7677C34.5223 27.6703 34.6478 27.5085 34.704 27.3176L35.5518 24.4399C35.608 24.2491 35.5903 24.0451 35.5027 23.8726C35.415 23.7001 35.2645 23.5734 35.0843 23.5203L33.4964 23.0525C33.7814 22.7193 33.9837 22.3185 34.0844 21.8873C34.185 21.4561 34.1808 21.0085 34.072 20.5863C33.9633 20.1641 33.7536 19.7809 33.4625 19.4725C33.1714 19.164 32.8083 18.9403 32.4071 18.8222C31.9512 18.6873 31.4691 18.6624 30.9962 18.7492C30.5234 18.836 30.0719 19.0323 29.6748 19.3237C29.4991 18.8636 29.2262 18.4538 28.8759 18.1245C28.5257 17.7952 28.107 17.5548 27.6509 17.4209ZM26.6812 31.9909L30.0785 32.9918C30.2587 33.0448 30.4539 33.02 30.6211 32.9226C30.7882 32.8252 30.9137 32.6633 30.9699 32.4725L32.4536 27.4365L28.3769 26.2354L26.6812 31.9909ZM27.018 25.8351L25.3223 31.5905L21.925 30.5896C21.7448 30.5365 21.5943 30.4098 21.5067 30.2373C21.419 30.0649 21.4013 29.8608 21.4575 29.67L22.9412 24.634L27.018 25.8351ZM31.3473 22.4193C31.6176 22.499 31.9103 22.4617 32.1611 22.3156C32.4118 22.1695 32.6001 21.9267 32.6844 21.6405C32.7687 21.3543 32.7422 21.0481 32.6107 20.7895C32.4792 20.5308 32.2535 20.3407 31.9831 20.2611C31.5326 20.1283 31.0448 20.1905 30.6268 20.434C30.2089 20.6774 29.8951 21.0822 29.7546 21.5592L29.6486 21.9189L31.3473 22.4193ZM28.2897 21.5185L28.3957 21.1588C28.5362 20.6818 28.492 20.1716 28.2729 19.7404C28.0537 19.3093 27.6774 18.9925 27.2269 18.8598C26.9566 18.7801 26.6639 18.8175 26.4131 18.9635C26.1624 19.1096 25.9741 19.3524 25.8898 19.6387C25.8055 19.9249 25.832 20.231 25.9635 20.4897C26.095 20.7484 26.3208 20.9384 26.5911 21.0181L28.2897 21.5185Z" fill="#FFF47C"/>
</g>
</g>
<defs>
<clipPath id="clip0_122_1797">
<rect width="40" height="40" fill="white" transform="matrix(-1 0 0 -1 40 40)"/>
</clipPath>
<clipPath id="clip1_122_1797">
<rect width="17" height="18" fill="white" transform="translate(22.0879 15) rotate(16.416)"/>
</clipPath>
</defs>
</svg>
