<svg width="56" height="56" viewBox="0 0 56 56" fill="none" xmlns="http://www.w3.org/2000/svg">
<rect width="56" height="56" rx="28" fill="#FFFCF5"/>
<path d="M37 23L27.5 13L18 23" stroke="#3E1FA7" stroke-width="2"/>
<path d="M19.1406 30.8516H21V38.3047C21 38.7474 21.0391 39.112 21.1172 39.3984C21.1953 39.6849 21.3229 39.9115 21.5 40.0781C21.6823 40.2396 21.9167 40.3542 22.2031 40.4219C22.4896 40.4844 22.8411 40.5156 23.2578 40.5156C23.6328 40.5156 23.9583 40.4844 24.2344 40.4219C24.5156 40.3542 24.75 40.2396 24.9375 40.0781C25.125 39.9115 25.263 39.6849 25.3516 39.3984C25.4453 39.112 25.4922 38.7474 25.4922 38.3047V30.8516H27.3516V38.4141C27.3516 39.0651 27.276 39.6302 27.125 40.1094C26.9792 40.5885 26.7422 40.987 26.4141 41.3047C26.0859 41.6172 25.6615 41.8516 25.1406 42.0078C24.625 42.1641 23.9974 42.2422 23.2578 42.2422C22.5182 42.2422 21.888 42.1641 21.3672 42.0078C20.8464 41.8568 20.4193 41.625 20.0859 41.3125C19.7578 41 19.5182 40.6068 19.3672 40.1328C19.2161 39.6536 19.1406 39.0911 19.1406 38.4453V30.8516ZM30.1641 30.8516H34.5859C34.8255 30.8516 35.0677 30.8698 35.3125 30.9062C35.5573 30.9427 35.7917 31.013 36.0156 31.1172C36.2396 31.2161 36.4479 31.3516 36.6406 31.5234C36.8333 31.6953 37.0026 31.9167 37.1484 32.1875C37.2943 32.4531 37.4062 32.776 37.4844 33.1562C37.5677 33.5365 37.6094 33.9818 37.6094 34.4922C37.6094 35.0026 37.5651 35.4479 37.4766 35.8281C37.388 36.2031 37.2682 36.5234 37.1172 36.7891C36.9661 37.0547 36.7891 37.2708 36.5859 37.4375C36.3828 37.6042 36.1667 37.737 35.9375 37.8359C35.7083 37.9297 35.4714 37.9948 35.2266 38.0312C34.987 38.0625 34.75 38.0781 34.5156 38.0781H32.0391V42H30.1641V30.8516ZM34.2969 36.3359C34.5781 36.3359 34.8047 36.2891 34.9766 36.1953C35.1536 36.1016 35.2917 35.9714 35.3906 35.8047C35.4948 35.638 35.5651 35.4427 35.6016 35.2188C35.638 34.9948 35.6562 34.7526 35.6562 34.4922C35.6562 34.237 35.638 33.9948 35.6016 33.7656C35.5651 33.5365 35.4948 33.3359 35.3906 33.1641C35.2917 32.987 35.1536 32.849 34.9766 32.75C34.8047 32.6458 34.5781 32.5938 34.2969 32.5938H32.0391V36.3359H34.2969Z" fill="#3E1FA7"/>
</svg>
